<mxfile host="app.diagrams.net" modified="2024-02-03T07:49:24.465Z" agent="Mozilla/5.0 (Windows NT 10.0; Win64; x64) AppleWebKit/537.36 (KHTML, like Gecko) Chrome/119.0.0.0 Safari/537.36" version="23.1.1" etag="YV5lLrul1pRIHcu0Q4fS" type="github">
  <diagram name="Halaman-1" id="mKpxJq24AtKny4nEEu6U">
    <mxGraphModel>
      <root>
        <mxCell id="0" />
        <mxCell id="1" parent="0" />
      </root>
    </mxGraphModel>
  </diagram>
</mxfile>
